<?xml version="1.0" encoding="iso-8859-1"?>
<!-- Uploaded to: SVG Repo, www.svgrepo.com, Generator: SVG Repo Mixer Tools -->
<svg fill="#535353" height="800px" width="800px" version="1.1" id="Layer_1" xmlns="http://www.w3.org/2000/svg" xmlns:xlink="http://www.w3.org/1999/xlink" 
	 viewBox="0 0 512.001 512.001" xml:space="preserve">
<g>
	<g>
		<g>
			<path d="M200.998,190.6c26.017,0,47.185-21.166,47.185-47.185c0-26.017-21.166-47.184-47.185-47.184
				c-26.019,0-47.185,21.166-47.185,47.184C153.814,169.434,174.98,190.6,200.998,190.6z M200.998,112.685
				c16.945,0,30.732,13.785,30.732,30.731c0,16.945-13.786,30.732-30.732,30.732s-30.732-13.786-30.732-30.732
				C170.267,126.471,184.053,112.685,200.998,112.685z"/>
			<path d="M455.475,0H56.524C42.39,0,30.892,11.498,30.892,25.632v460.736c0,14.134,11.498,25.632,25.632,25.632h398.951
				c14.134,0,25.632-11.498,25.632-25.632V25.632C481.108,11.498,469.609,0,455.475,0z M464.655,486.368
				c0,5.061-4.118,9.18-9.18,9.18H56.524c-5.061,0-9.18-4.118-9.18-9.18V25.632c0-5.061,4.118-9.18,9.18-9.18h398.951
				c5.061,0,9.18,4.118,9.18,9.18V486.368z"/>
			<path d="M403.547,62.676H108.452c-8.208,0-14.885,6.678-14.885,14.885v295.093c0,8.208,6.678,14.885,14.885,14.885h295.093
				c8.208,0,14.885-6.678,14.885-14.885V77.561C418.431,69.353,411.754,62.676,403.547,62.676z M110.02,79.128h291.958V221.92
				l-42.138-72.984c-4.97-8.608-13.87-13.746-23.81-13.746c-9.939,0-18.84,5.139-23.808,13.746l-69.31,120.048
				c-14.343-11.153-31.869-17.224-50.276-17.224c-13.996,0-27.655,3.548-39.814,10.306c-12.159-6.758-25.818-10.306-39.814-10.306
				c-0.995,0-1.992,0.021-2.989,0.057V79.128z M382.173,220.523c-14.559,6.225-30.039,9.387-46.143,9.387
				c-16.103,0-31.583-3.162-46.142-9.387l36.581-63.361c1.995-3.456,5.57-5.519,9.56-5.519c3.991,0,7.565,2.063,9.561,5.519
				L382.173,220.523z M110.021,371.087V268.288c0.997-0.045,1.993-0.075,2.989-0.075c12.572,0,24.804,3.581,35.374,10.358
				c2.706,1.734,6.174,1.734,8.88,0c10.569-6.776,22.801-10.358,35.374-10.358c15.476,0,30.175,5.367,41.954,15.186l-50.627,87.687
				H110.021z M401.979,371.087h-0.001H202.962l78.648-136.222c17.034,7.54,35.69,11.498,54.422,11.498
				c18.732,0,37.389-3.959,54.423-11.499l11.525,19.962V371.087z"/>
		</g>
	</g>
</g>
</svg>